<?xml version="1.0" standalone="no"?>
<!DOCTYPE svg PUBLIC "-//W3C//DTD SVG 1.1//EN" "http://www.w3.org/Graphics/SVG/1.1/DTD/svg11.dtd">
<svg
        t="1557762834330"
        class="icon"
        style=""
        viewBox="0 0 1026 1024"
        version="1.1"
        xmlns="http://www.w3.org/2000/svg"
        p-id="1194" xmlns:xlink="http://www.w3.org/1999/xlink"
        width="200.390625" height="200"
>
    <defs><style type="text/css"></style></defs>
    <path d="M511.6726522 933.05187161a421.44163137 421.44163137 0 1 1 297.14927453-122.64609924 419.7953746 419.7953746 0 0 1-297.14927453 123.46922763z m0-775.38675064c-90.54410037 0-181.91132913 34.57138403-251.0540972 103.71415128-138.2855353 139.1086637-138.2855353 363.82265827-1e-8 502.10819357s362.99952988 138.2855353 502.10819357 0c138.2855353-138.2855353 138.2855353-362.99952988 0-502.10819357-69.14276724-68.31963968-160.509996-102.89102289-251.05409636-102.89102371z m274.10168545 628.86993394z" fill="" p-id="1195"></path><path d="M733.09413403 545.35849587H289.42804197a32.92512726 32.92512726 0 0 1 0-65.85025451h443.66609206a32.92512726 32.92512726 0 0 1 0 65.85025451z" fill="" p-id="1196"></path>
    <path d="M511.6726522 767.60310611a32.92512726 32.92512726 0 0 1-32.92512809-32.92512726V291.01188677a32.92512726 32.92512726 0 1 1 65.85025533 1e-8v443.66609207a32.92512726 32.92512726 0 0 1-32.92512724 32.92512726z" fill="" p-id="1197"></path>
</svg>
